HIERARCHY
ROOT SpineBase
{
  OFFSET 0.000000 0.000000 0.000000
  CHANNELS 6 Xposition Yposition Zposition Zrotation Xrotation Yrotation
  JOINT SpineMid
  {
    OFFSET -0.000000 31.822287 0.000000
    CHANNELS 3 Zrotation Xrotation Yrotation
    JOINT SpineShoulder
    {
      OFFSET 0.281006 23.613024 -0.821946
      CHANNELS 3 Zrotation Xrotation Yrotation
      JOINT Neck
      {
        OFFSET 0.203396 7.800445 -0.608006
        CHANNELS 3 Zrotation Xrotation Yrotation
        JOINT Head
        {
          OFFSET 3.964451 12.084034 3.826758
          CHANNELS 3 Zrotation Xrotation Yrotation
          End Site
          {
            OFFSET 0 0 0
          }
        }
      }
      JOINT ShoulderLeft
      {
        OFFSET -4.753883 -3.062371 -15.550251
        CHANNELS 3 Zrotation Xrotation Yrotation
        JOINT ElbowLeft
        {
          OFFSET 0.237410 -22.513135 -7.222382
          CHANNELS 3 Zrotation Xrotation Yrotation
          JOINT WristLeft
          {
            OFFSET 5.244794 -18.961600 1.016398
            CHANNELS 3 Zrotation Xrotation Yrotation
            JOINT HandLeft
            {
              OFFSET 1.771728 -6.023195 2.647834
              CHANNELS 3 Zrotation Xrotation Yrotation
              JOINT HandTipLeft
              {
                OFFSET 3.030496 -7.878957 0.211346
                CHANNELS 3 Zrotation Xrotation Yrotation
                End Site
                {
                  OFFSET 0 0 0
                }
              }
              JOINT ThumbLeft
              {
                OFFSET -2.742410 0.907952 -1.452429
                CHANNELS 3 Zrotation Xrotation Yrotation
                End Site
                {
                  OFFSET 0 0 0
                }
              }
            }
          }
        }
      }
      JOINT ShoulderRight
      {
        OFFSET 6.957762 -6.095963 13.041932
        CHANNELS 3 Zrotation Xrotation Yrotation
        JOINT ElbowRight
        {
          OFFSET 2.369369 -26.162348 5.542819
          CHANNELS 3 Zrotation Xrotation Yrotation
          JOINT WristRight
          {
            OFFSET 2.527348 -24.756951 -11.825650
            CHANNELS 3 Zrotation Xrotation Yrotation
            JOINT HandRight
            {
              OFFSET -0.755017 -5.457302 -0.454582
              CHANNELS 3 Zrotation Xrotation Yrotation
              JOINT HandTipRight
              {
                OFFSET -2.187980 -2.901332 -4.234434
                CHANNELS 3 Zrotation Xrotation Yrotation
                End Site
                {
                  OFFSET 0 0 0
                }
              }
              JOINT ThumbRight
              {
                OFFSET -0.512689 0.934999 -7.395962
                CHANNELS 3 Zrotation Xrotation Yrotation
                End Site
                {
                  OFFSET 0 0 0
                }
              }
            }
          }
        }
      }
    }
  }
  JOINT HipLeft
  {
    OFFSET -1.337822 2.454857 -8.848514
    CHANNELS 3 Zrotation Xrotation Yrotation
    JOINT KneeLeft
    {
      OFFSET -9.074526 -35.666969 -3.164554
      CHANNELS 3 Zrotation Xrotation Yrotation
      JOINT AnkleLeft
      {
        OFFSET -10.401209 -34.438623 4.524100
        CHANNELS 3 Zrotation Xrotation Yrotation
        JOINT FootLeft
        {
          OFFSET 10.450834 -3.866380 -7.187831
          CHANNELS 3 Zrotation Xrotation Yrotation
          End Site
          {
            OFFSET 0 0 0
          }
        }
      }
    }
  }
  JOINT HipRight
  {
    OFFSET 3.735917 -0.561460 1.720178
    CHANNELS 3 Zrotation Xrotation Yrotation
    JOINT KneeRight
    {
      OFFSET -4.102489 -38.402103 10.179248
      CHANNELS 3 Zrotation Xrotation Yrotation
      JOINT AnkleRight
      {
        OFFSET -9.478181 -29.247903 6.808712
        CHANNELS 3 Zrotation Xrotation Yrotation
        JOINT FootRight
        {
          OFFSET 6.204903 -5.971528 -3.147571
          CHANNELS 3 Zrotation Xrotation Yrotation
          End Site
          {
            OFFSET 0 0 0
          }
        }
      }
    }
  }
}
MOTION
Frames: 16
Frame Time: 0.033333
-108.899277 76.089872 317.899145 0.000000 0.000000 -64.355615 -0.000000 -0.000000 64.355615 -0.000000 0.000000 0.000000 -0.000000 0.000000 0.000000 0.000000 0.000000 0.000000 -0.000000 0.000000 0.000000 -0.000000 0.000000 0.000000 -0.000000 0.000000 0.000000 -0.000000 0.000000 0.000000 0.000000 0.000000 0.000000 0.000000 0.000000 0.000000 -0.000000 0.000000 0.000000 -0.000000 0.000000 0.000000 -0.000000 0.000000 0.000000 -0.000000 0.000000 0.000000 0.000000 0.000000 0.000000 0.000000 0.000000 0.000000 -0.000000 -0.000000 64.355615 -0.000000 0.000000 0.000000 -0.000000 0.000000 0.000000 0.000000 0.000000 0.000000 -0.000000 -0.000000 64.355615 -0.000000 0.000000 0.000000 -0.000000 0.000000 0.000000 0.000000 0.000000 0.000000
-108.684726 76.096985 318.063134 0.023476 -0.050796 -63.429387 -0.055932 0.001724 63.429398 -0.000000 0.000000 0.000000 -0.570658 -0.972682 0.495511 0.000000 0.000000 0.000000 -0.000000 0.000000 0.000000 1.168767 -0.137518 0.025942 -2.223214 -3.626609 -1.607377 0.950648 3.792170 1.520657 0.000000 0.000000 0.000000 0.000000 0.000000 0.000000 -0.000000 0.000000 0.000000 -0.000000 0.000000 0.000000 -0.000000 0.000000 0.000000 1.024106 -2.575127 0.489996 0.000000 0.000000 0.000000 0.000000 0.000000 0.000000 -0.055932 0.001724 63.429398 -0.000000 0.000000 0.000000 -0.000000 0.000000 0.000000 0.000000 0.000000 0.000000 -0.055932 0.001724 63.429398 -0.000000 0.000000 0.000000 7.604033 7.057705 2.595197 0.000000 0.000000 0.000000
-108.465803 76.107564 318.268263 0.046221 -0.075347 -62.570669 -0.088168 -0.006316 62.570694 -0.000000 0.000000 0.000000 -1.069033 -1.797047 0.913116 0.000000 0.000000 0.000000 -0.000000 0.000000 0.000000 2.124816 -0.179307 0.067287 -4.442982 -7.364421 -3.368533 3.040501 7.640697 2.881311 0.000000 0.000000 0.000000 0.000000 0.000000 0.000000 -0.000000 0.000000 0.000000 -0.000000 0.000000 0.000000 0.720885 -0.440722 0.003702 1.292001 -4.611093 1.028349 0.000000 0.000000 0.000000 0.000000 0.000000 0.000000 -0.088168 -0.006316 62.570694 -0.000000 0.000000 0.000000 -0.000000 0.000000 0.000000 0.000000 0.000000 0.000000 -0.071157 0.805003 62.725455 -0.728922 -0.356661 -0.157148 12.470041 11.874510 3.834747 0.000000 0.000000 0.000000
-108.242508 76.121609 318.514534 0.068200 -0.073294 -61.784303 -0.096829 -0.025443 61.784326 -0.000000 0.000000 0.000000 -1.499186 -2.472929 1.257002 0.000000 0.000000 0.000000 -0.000000 0.000000 0.000000 2.878824 -0.128377 0.121213 -6.594848 -10.889664 -5.174315 4.743275 11.321975 4.054767 0.000000 0.000000 0.000000 0.000000 0.000000 0.000000 -0.000000 0.000000 0.000000 -0.000000 0.000000 0.000000 1.045792 -0.643840 0.007851 1.919322 -6.771916 1.616526 0.000000 0.000000 0.000000 0.000000 0.000000 0.000000 -0.535426 0.724918 61.558046 -1.183755 -0.361321 0.007070 0.687048 -0.077433 1.116717 0.000000 0.000000 0.000000 -0.208058 1.118656 61.970869 -0.957672 -0.635794 -0.190796 15.602484 15.091439 4.467092 0.000000 0.000000 0.000000
-108.014841 76.139121 318.801945 0.089380 -0.044331 -61.074442 -0.082031 -0.056788 61.074436 -0.000000 0.000000 0.000000 -1.864504 -3.000435 1.530687 0.000000 0.000000 0.000000 -0.561456 -0.727371 0.169240 4.003486 0.726811 -0.033503 -8.552965 -13.870923 -6.864540 6.517086 14.454114 4.889804 0.000000 0.000000 0.000000 0.000000 0.000000 0.000000 -0.000000 0.000000 0.000000 -0.000000 0.000000 0.000000 1.345043 -0.834247 0.013198 2.534154 -8.822603 2.241866 0.000000 0.000000 0.000000 0.000000 0.000000 0.000000 -0.795303 0.915422 60.756325 -1.418103 -0.600018 0.033607 0.859844 -0.097175 1.457099 0.000000 0.000000 0.000000 -0.421877 1.367816 61.260503 -2.058340 -0.898701 -0.459456 18.459228 17.197973 5.104580 0.000000 0.000000 0.000000
-107.782801 76.160099 319.130498 0.109729 0.011796 -60.444509 -0.043865 -0.101270 60.444459 -0.000000 0.000000 0.000000 -2.167677 -3.379699 1.737007 0.000000 0.000000 0.000000 -0.871103 -0.777977 0.265944 4.690190 0.997098 -0.067284 -10.158448 -16.056222 -8.262364 8.332256 16.736944 5.323911 0.000000 0.000000 0.000000 0.000000 0.000000 0.000000 -0.000000 0.000000 0.000000 -0.000000 0.000000 0.000000 1.617421 -1.011165 0.019487 3.136546 -10.757646 2.895741 0.000000 0.000000 0.000000 0.000000 0.000000 0.000000 -1.098689 1.081992 60.026377 -1.571807 -0.898232 0.072736 1.004089 -0.113604 1.781298 0.000000 0.000000 0.000000 -0.716681 1.549400 60.596759 -2.280984 -1.292451 -0.489569 19.743686 18.493478 5.408264 0.000000 0.000000 0.000000
-107.508001 76.188710 319.575178 0.122772 0.077009 -59.828583 0.004872 -0.144843 59.828507 -0.000000 0.000000 0.000000 -2.385248 -3.441269 1.817858 0.000000 0.000000 0.000000 -1.254518 -0.828486 0.385605 5.291521 1.161268 -0.157451 -11.886256 -17.368657 -9.575989 10.896250 18.121823 5.409515 0.000000 0.000000 0.000000 0.000000 0.000000 0.000000 -0.346548 -1.649640 -0.227187 0.340146 1.650972 0.217297 5.980485 -2.401367 -0.041249 -0.172587 -11.594312 3.690896 0.000000 0.000000 0.000000 0.000000 0.000000 0.000000 -1.728026 1.256194 59.255314 -1.448477 -1.582805 0.208219 1.052323 -0.054771 2.012725 0.000000 0.000000 0.000000 -1.305531 1.623187 59.860224 -2.229849 -1.973505 -0.407407 18.213642 17.245660 5.529632 0.000000 0.000000 0.000000
-107.246243 76.214627 320.026986 0.141032 0.186945 -59.246375 0.088539 -0.216793 59.246312 -0.000000 0.000000 0.000000 -2.605021 -3.396391 1.865878 0.000000 0.000000 0.000000 -1.732461 -0.742491 0.537972 5.775096 1.376801 -0.230410 -12.510354 -17.798487 -10.111373 13.435294 18.743420 5.025213 0.000000 0.000000 0.000000 0.000000 0.000000 0.000000 -0.235792 -1.292978 -0.169345 0.232028 1.293659 0.164065 5.568106 -2.349599 -0.025000 1.306399 -14.550239 5.121958 0.000000 0.000000 0.000000 0.000000 0.000000 0.000000 -2.222723 1.419958 58.533477 -1.429244 -2.093085 0.292709 1.151429 -0.073297 2.325377 0.000000 0.000000 0.000000 -1.767831 1.665674 59.173215 -2.235143 -2.495773 -0.371836 18.302439 17.448425 5.796242 0.000000 0.000000 0.000000
-107.027389 76.246648 320.456737 0.168116 0.321170 -58.864125 0.187976 -0.309965 58.864163 -0.000000 0.000000 0.000000 -2.641646 -3.566857 1.929252 0.000000 0.000000 0.000000 -2.269037 -0.582688 0.711635 6.181705 1.759283 -0.261456 -12.468701 -17.741421 -10.193875 15.149993 18.154097 4.486471 0.000000 0.000000 0.000000 0.000000 0.000000 0.000000 -0.000000 0.000000 0.000000 -0.000000 0.000000 0.000000 1.481275 -1.587076 0.117054 5.837581 -16.814456 5.796430 0.000000 0.000000 0.000000 0.000000 0.000000 0.000000 -2.549077 1.555050 58.038076 -1.526766 -2.419878 0.327665 1.296151 -0.141992 2.645021 0.000000 0.000000 0.000000 -2.252206 1.737384 58.686943 -2.261595 -3.121491 -0.325231 18.406754 17.684403 6.019429 0.000000 0.000000 0.000000
-106.817703 76.267905 320.871057 0.210989 0.477445 -58.638529 0.297887 -0.428642 58.638764 -0.000000 0.000000 0.000000 -2.752413 -3.568210 1.960758 0.000000 0.000000 0.000000 -2.783851 -0.378954 0.881195 6.323227 2.354133 -0.225232 -11.344963 -16.544428 -9.415260 15.654013 16.097349 3.968817 0.000000 0.000000 0.000000 0.000000 0.000000 0.000000 0.714016 4.005442 0.492572 -0.750223 -3.998829 -0.543732 -6.516067 -2.401094 0.734387 13.395036 -15.674468 4.339396 0.000000 0.000000 0.000000 0.000000 0.000000 0.000000 -2.759232 1.590549 57.728537 -1.582999 -2.610933 0.337105 1.395600 -0.183726 3.056045 0.000000 0.000000 0.000000 -2.780896 1.577276 58.303475 -1.936068 -3.590545 -0.210769 18.321300 17.900715 6.343749 0.000000 0.000000 0.000000
-106.642734 76.303807 321.256935 0.240440 0.608768 -58.735134 -0.138310 0.153178 58.734772 0.000022 0.058459 -0.000184 -3.292937 -4.017998 1.851789 0.000000 0.000000 0.000000 -3.618760 -0.983003 1.007730 6.560439 2.862159 -0.190987 -9.869453 -14.383476 -8.083820 14.672582 12.876517 3.586093 0.000000 0.000000 0.000000 0.000000 0.000000 0.000000 0.994434 7.253781 0.948810 -1.442107 -8.094101 -1.126204 -17.445902 -0.329600 1.429492 24.108815 -18.812398 5.212430 0.000000 0.000000 0.000000 0.000000 0.000000 0.000000 -2.885761 1.553890 57.773775 -1.539560 -2.629157 0.320862 1.410012 -0.291078 3.385074 0.000000 0.000000 0.000000 -3.257182 1.486585 58.269262 -1.697517 -3.954081 -0.143933 18.250694 17.994881 6.648094 0.000000 0.000000 0.000000
-106.507439 76.371901 321.612838 0.223148 0.755654 -58.956629 -0.142328 0.158422 58.953889 0.001851 0.058547 -0.002800 -3.534281 -3.579761 1.735906 0.000000 0.000000 0.000000 -4.069522 -0.914410 1.152561 7.363545 3.308483 -0.139411 -11.004390 -16.944672 -9.436620 13.997054 15.378401 4.245551 0.000000 0.000000 0.000000 0.000000 0.000000 0.000000 1.541719 11.499726 1.390165 -2.180889 -12.462452 -1.794803 -28.512846 3.178608 2.691933 36.647060 -25.710231 8.499632 0.000000 0.000000 0.000000 0.000000 0.000000 0.000000 -2.976128 1.459717 57.960635 -1.341754 -2.583808 0.302322 1.344756 -0.467096 3.561368 0.000000 0.000000 0.000000 -3.614844 1.420264 58.379617 -1.397264 -4.202957 -0.074622 18.133304 17.934217 6.838259 0.000000 0.000000 0.000000
-106.379023 76.455952 322.033963 0.209060 0.820912 -59.307139 -0.142227 0.155741 59.303146 0.000569 0.057866 -0.004435 -3.818749 -3.010053 1.626259 0.000000 0.000000 0.000000 -4.444732 -0.789681 1.278256 8.024891 3.805572 -0.066050 -12.950737 -21.085362 -11.868257 13.693816 19.552983 5.241299 0.000000 0.000000 0.000000 0.000000 0.000000 0.000000 1.993029 15.576301 1.767623 -2.607334 -15.519673 -2.394992 -39.764937 4.808063 3.765866 48.225423 -29.151792 11.020615 0.000000 0.000000 0.000000 0.000000 0.000000 0.000000 -3.253112 1.396400 58.259651 -1.063120 -2.640630 0.309480 1.260774 -0.668061 3.647630 0.000000 0.000000 0.000000 -4.104555 1.434626 58.618826 -1.137997 -4.509454 -0.015394 18.064296 17.792002 6.981034 0.000000 0.000000 0.000000
-106.282367 76.550045 322.433335 0.174684 0.822081 -59.790796 -0.137290 0.140191 59.785652 -0.004638 0.053458 -0.006460 -4.041616 -2.187154 1.466204 0.000000 0.000000 0.000000 -4.704556 -0.536529 1.388404 8.552811 3.534166 -0.135195 -13.527925 -23.081879 -12.737631 12.021356 21.433662 5.938182 0.000000 0.000000 0.000000 0.000000 0.000000 0.000000 2.331396 18.968159 2.053339 -3.112011 -18.612545 -2.932678 -47.372852 7.352498 5.245789 61.696453 -37.882634 17.783593 0.000000 0.000000 0.000000 0.000000 0.000000 0.000000 -3.579810 1.325942 58.701801 -0.712274 -2.713737 0.328583 1.148641 -0.884403 3.569465 0.000000 0.000000 0.000000 -4.525153 1.442511 59.012083 -0.819644 -4.640924 0.039487 17.967344 17.486932 7.018706 0.000000 0.000000 0.000000
-106.202157 76.643141 322.813318 0.126633 0.749835 -60.408978 -0.125532 0.114019 60.403142 -0.012087 0.044170 -0.008165 -4.265474 -0.855013 1.201007 0.000000 0.000000 0.000000 -4.840831 -0.210371 1.474544 8.982091 3.011447 -0.235640 -14.458083 -24.418888 -13.615973 11.592295 22.624941 6.319807 0.000000 0.000000 0.000000 0.000000 0.000000 0.000000 2.516177 21.249084 2.224945 -3.392582 -20.586597 -3.268273 -51.375006 10.149406 6.594111 70.238257 -42.347119 23.085589 0.000000 0.000000 0.000000 0.000000 0.000000 0.000000 -3.920097 1.261332 59.293458 -0.362413 -2.747506 0.340413 1.037290 -1.115317 3.412393 0.000000 0.000000 0.000000 -4.921722 1.457857 59.557304 -0.464852 -4.644025 0.088316 17.833920 17.082135 7.010042 0.000000 0.000000 0.000000
-106.152493 76.731332 323.151112 0.047210 0.698953 -61.127186 -0.147410 0.107889 61.119083 -0.017029 0.056625 -0.012406 -4.244136 0.265711 0.914259 0.000000 0.000000 0.000000 -4.916364 -0.100665 1.542611 9.096325 2.705325 -0.330351 -14.340481 -26.315032 -14.137734 10.100838 24.574401 6.901234 0.000000 0.000000 0.000000 0.000000 0.000000 0.000000 2.517082 21.844404 2.274098 -3.349775 -21.081642 -3.301613 -51.290109 12.123595 7.145269 66.485176 -38.824353 19.724565 0.000000 0.000000 0.000000 0.000000 0.000000 0.000000 -4.166422 1.187106 59.998633 -0.058723 -2.722517 0.334897 0.960230 -1.387500 3.133251 0.000000 0.000000 0.000000 -5.146425 1.474240 60.235198 -0.209466 -4.469821 0.079498 17.770714 16.539268 6.941689 0.000000 0.000000 0.000000
